<svg width="23" height="24" viewBox="0 0 23 24" fill="none" xmlns="http://www.w3.org/2000/svg">
<path id="Vector" d="M22.4028 6.40085C22.4051 7.24177 22.2406 8.0748 21.9188 8.85172C21.597 9.62864 21.1243 10.334 20.5281 10.9271L8.99857 22.5934C8.55246 23.0402 8.02248 23.3945 7.43906 23.6359C6.85565 23.8772 6.23029 24.001 5.59891 24C4.96876 24.001 4.34461 23.8776 3.7623 23.6368C3.17999 23.3959 2.65098 23.0425 2.20566 22.5966C1.30681 21.6956 0.802015 20.4749 0.802015 19.2022C0.802015 17.9295 1.30681 16.7087 2.20566 15.8077L10.5348 7.5258C11.7853 6.28324 13.7728 6.24243 14.9674 7.43539C15.2565 7.72559 15.4827 8.07237 15.6316 8.45401C15.7806 8.83564 15.8492 9.24392 15.8331 9.65328C15.8067 10.4862 15.4623 11.2773 14.8705 11.864L6.96629 19.7682C6.81627 19.9183 6.61279 20.0025 6.40062 20.0025C6.18845 20.0025 5.98497 19.9183 5.83494 19.7682C5.68492 19.6182 5.60063 19.4147 5.60063 19.2026C5.60063 18.9904 5.68492 18.7869 5.83494 18.6369L13.7392 10.7326C14.0456 10.4262 14.2217 10.0261 14.2337 9.60608C14.2424 9.4148 14.2116 9.22378 14.1432 9.04495C14.0748 8.86612 13.9702 8.70332 13.836 8.56674C13.2639 7.99706 12.2894 8.03787 11.6637 8.66035L3.33541 16.9407C2.73686 17.5415 2.40092 18.3552 2.40122 19.2033C2.40152 20.0514 2.73803 20.8648 3.33701 21.4653C3.93784 22.0643 4.75167 22.4007 5.60011 22.4007C6.44856 22.4007 7.26239 22.0643 7.86321 21.4653L19.3927 9.7989C20.3033 8.88838 20.8025 7.68342 20.8025 6.40085C20.8025 5.11828 20.3033 3.91332 19.3967 3.0068C18.4894 2.09948 17.2845 1.60021 16.0019 1.60021C14.7193 1.60021 13.5144 2.09948 12.607 3.0068L1.36395 14.1699C1.28935 14.2439 1.2009 14.3025 1.10365 14.3424C1.0064 14.3822 0.902256 14.4025 0.797163 14.4021C0.584918 14.4013 0.381695 14.3161 0.232199 14.1655C0.0827029 14.0148 -0.000819212 13.8109 6.05809e-06 13.5987C0.000831328 13.3865 0.0859365 13.1832 0.2366 13.0337L11.4781 1.87305C12.6847 0.665689 14.2921 0 16.0019 0C17.7117 0 19.3191 0.665689 20.5281 1.87545C21.1244 2.46827 21.5971 3.17351 21.9189 3.95031C22.2407 4.72711 22.4051 5.56004 22.4028 6.40085Z" fill="#CACBCC"/>
</svg>
