<svg width="20" height="20" viewBox="0 0 20 20" fill="none" xmlns="http://www.w3.org/2000/svg">
<path id="Exclude" fill-rule="evenodd" clip-rule="evenodd" d="M10 20C15.5228 20 20 15.5228 20 10C20 4.47715 15.5228 0 10 0C4.47715 0 0 4.47715 0 10C0 15.5228 4.47715 20 10 20ZM15.038 7.60368C15.3523 7.21215 15.2897 6.63996 14.8982 6.32565C14.5066 6.01135 13.9345 6.07394 13.6201 6.46547L9.45887 11.6491L6.74176 9.22205C6.36732 8.88758 5.79262 8.91999 5.45815 9.29443C5.12368 9.66888 5.15609 10.2436 5.53054 10.578L8.96231 13.6434C9.14831 13.8096 9.39441 13.892 9.64297 13.8714C9.89153 13.8508 10.1207 13.729 10.2768 13.5345L15.038 7.60368Z" fill="#1DCE00"/>
</svg>
