<svg width="30" height="22" viewBox="0 0 30 22" fill="none" xmlns="http://www.w3.org/2000/svg">
<g id="Vector">
<path d="M27.2378 0.705078H2.76216C1.23917 0.705078 0 1.94425 0 3.46723V18.5327C0 20.0557 1.23917 21.2949 2.76216 21.2949H27.2378C28.7608 21.2949 30 20.0557 30 18.5327V3.46723C30 1.94414 28.7608 0.705078 27.2378 0.705078ZM28.2737 18.5327C28.2737 19.1038 27.809 19.5685 27.2378 19.5685H2.76216C2.19096 19.5685 1.72635 19.1038 1.72635 18.5327V3.46723C1.72635 2.89616 2.19096 2.43143 2.76216 2.43143H27.2378C27.809 2.43143 28.2737 2.89616 28.2737 3.46723V18.5327Z" fill="#476FFE"/>
<path d="M24.864 5.63334H16.9305C16.7474 5.63334 16.5717 5.70609 16.4422 5.83559C16.3127 5.96509 16.24 6.14074 16.24 6.32388C16.24 6.50702 16.3127 6.68266 16.4422 6.81216C16.5717 6.94166 16.7474 7.01442 16.9305 7.01442H24.864C25.0471 7.01442 25.2228 6.94166 25.3523 6.81216C25.4818 6.68266 25.5545 6.50702 25.5545 6.32388C25.5545 6.14074 25.4818 5.96509 25.3523 5.83559C25.2228 5.70609 25.0471 5.63334 24.864 5.63334ZM24.864 14.9855H16.9305C16.7474 14.9855 16.5717 15.0583 16.4422 15.1878C16.3127 15.3173 16.24 15.4929 16.24 15.6761C16.24 15.8592 16.3127 16.0349 16.4422 16.1644C16.5717 16.2939 16.7474 16.3666 16.9305 16.3666H24.864C25.0471 16.3666 25.2228 16.2939 25.3523 16.1644C25.4818 16.0349 25.5545 15.8592 25.5545 15.6761C25.5545 15.4929 25.4818 15.3173 25.3523 15.1878C25.2228 15.0583 25.0471 14.9855 24.864 14.9855ZM24.864 9.62788H20.0627C19.8795 9.62788 19.7039 9.70063 19.5744 9.83013C19.4449 9.95963 19.3722 10.1353 19.3722 10.3184C19.3722 10.5016 19.4449 10.6772 19.5744 10.8067C19.7039 10.9362 19.8795 11.009 20.0627 11.009H24.864C25.0471 11.009 25.2228 10.9362 25.3523 10.8067C25.4818 10.6772 25.5545 10.5016 25.5545 10.3184C25.5545 10.1353 25.4818 9.95963 25.3523 9.83013C25.2228 9.70063 25.0471 9.62788 24.864 9.62788ZM24.864 12.3066H20.0627C19.8795 12.3066 19.7039 12.3793 19.5744 12.5088C19.4449 12.6383 19.3722 12.814 19.3722 12.9971C19.3722 13.1803 19.4449 13.3559 19.5744 13.4854C19.7039 13.6149 19.8795 13.6877 20.0627 13.6877H24.864C25.0471 13.6877 25.2228 13.6149 25.3523 13.4854C25.4818 13.3559 25.5545 13.1803 25.5545 12.9971C25.5545 12.814 25.4818 12.6383 25.3523 12.5088C25.2228 12.3793 25.0471 12.3066 24.864 12.3066ZM9.80139 11.3226C11.7584 11.3226 13.3505 9.72985 13.3505 7.77217C13.3505 5.81437 11.7584 4.22165 9.80139 4.22165C7.84383 4.22165 6.25122 5.81437 6.25122 7.77217C6.25122 9.72985 7.84383 11.3226 9.80139 11.3226ZM9.80139 5.94811C10.8065 5.94811 11.6242 6.7664 11.6242 7.77228C11.6242 8.77805 10.8066 9.59634 9.80139 9.59634C8.79574 9.59634 7.97757 8.77805 7.97757 7.77228C7.97757 6.7664 8.79574 5.94811 9.80139 5.94811ZM11.1749 11.9606H8.44932C6.53975 11.9606 4.98627 13.514 4.98627 15.4235V16.9151C4.98627 17.3918 5.37262 17.7783 5.84944 17.7783C6.32626 17.7783 6.71261 17.3918 6.71261 16.9151V15.4235C6.71261 14.466 7.49177 13.687 8.44932 13.687H11.1749C12.1324 13.687 12.9116 14.4659 12.9116 15.4235V16.9151C12.9116 17.3918 13.2979 17.7783 13.7748 17.7783C14.2516 17.7783 14.6379 17.3918 14.6379 16.9151V15.4235C14.6379 13.514 13.0843 11.9606 11.1749 11.9606Z" fill="#476FFE"/>
</g>
</svg>
