<svg width="85" height="30" viewBox="0 0 85 30" fill="none" xmlns="http://www.w3.org/2000/svg">
<path d="M12.64 29L5.16 19.04L12.6 9.68H18.64L9.92 20.24L10.12 17.68L19.04 29H12.64ZM0.32 29V0.079998H5.56V29H0.32ZM24.7972 29L17.5572 9.68H22.8372L27.5572 23.72L25.9572 23.76L30.7972 9.68H34.5972L39.4372 23.76L37.8372 23.72L42.5572 9.68H47.8372L40.6372 29H36.8372L31.9572 15.64H33.4372L28.5572 29H24.7972ZM49.2669 29V9.68H54.5469V29H49.2669ZM51.9069 6.56C51.0535 6.56 50.3469 6.28 49.7869 5.72C49.2269 5.13333 48.9469 4.41333 48.9469 3.56C48.9469 2.73333 49.2269 2.02667 49.7869 1.44C50.3469 0.853333 51.0535 0.559999 51.9069 0.559999C52.7869 0.559999 53.4935 0.853333 54.0269 1.44C54.5869 2.02667 54.8669 2.73333 54.8669 3.56C54.8669 4.41333 54.5869 5.13333 54.0269 5.72C53.4935 6.28 52.7869 6.56 51.9069 6.56ZM67.5087 29.4C65.5354 29.4 63.7621 28.96 62.1887 28.08C60.6154 27.2 59.3754 26 58.4687 24.48C57.5621 22.96 57.1087 21.2533 57.1087 19.36C57.1087 17.44 57.5621 15.72 58.4687 14.2C59.3754 12.68 60.6154 11.48 62.1887 10.6C63.7887 9.69333 65.5621 9.24 67.5087 9.24C69.0287 9.24 70.4287 9.52 71.7087 10.08C72.9887 10.64 74.0954 11.44 75.0287 12.48L71.6687 15.88C71.1621 15.32 70.5487 14.8933 69.8287 14.6C69.1354 14.3067 68.3621 14.16 67.5087 14.16C66.5487 14.16 65.6821 14.3867 64.9087 14.84C64.1621 15.2667 63.5621 15.8667 63.1087 16.64C62.6821 17.3867 62.4687 18.28 62.4687 19.32C62.4687 20.3333 62.6821 21.24 63.1087 22.04C63.5621 22.8133 64.1621 23.4267 64.9087 23.88C65.6821 24.3067 66.5487 24.52 67.5087 24.52C68.3887 24.52 69.1754 24.3733 69.8687 24.08C70.5887 23.76 71.2021 23.3067 71.7087 22.72L75.1087 26.12C74.1221 27.1867 72.9887 28 71.7087 28.56C70.4287 29.12 69.0287 29.4 67.5087 29.4Z" fill="white"/>
<path d="M80.8763 29.4C79.9163 29.4 79.1296 29.08 78.5163 28.44C77.9029 27.8 77.5963 27.0133 77.5963 26.08C77.5963 25.1467 77.9029 24.36 78.5163 23.72C79.1296 23.08 79.9163 22.76 80.8763 22.76C81.8096 22.76 82.5829 23.08 83.1963 23.72C83.8096 24.36 84.1163 25.1467 84.1163 26.08C84.1163 27.0133 83.8096 27.8 83.1963 28.44C82.5829 29.08 81.8096 29.4 80.8763 29.4Z" fill="#476FFE"/>
</svg>
