<svg width="260" height="90" viewBox="0 0 260 90" fill="none" xmlns="http://www.w3.org/2000/svg">
<path d="M17.3074 47.7143L9.92933 28.9116L7.5849 33.2248V47.7143H0V0.539141H7.5849V21.094L17.5142 0.539141H25.0991L14.5492 21.5658L25.0991 47.7143H17.3074Z" fill="white"/>
<path d="M55.581 47.7143H47.8581C47.4444 46.5012 47.1686 45.7599 47.1686 41.9185V34.5052C47.1686 30.1247 45.6516 28.5072 42.2039 28.5072H39.5837V47.7143H31.9988V0.539141H43.4451C51.3058 0.539141 54.6846 4.11097 54.6846 11.3894V15.096C54.6846 19.9483 53.0986 23.1158 49.7199 24.6658C53.5123 26.2159 54.7535 29.7877 54.7535 34.7074V41.9858C54.7535 44.2772 54.8225 45.962 55.581 47.7143ZM43.2383 7.27844H39.5837V21.7679H42.5487C45.3758 21.7679 47.0997 20.5549 47.0997 16.7809V12.1307C47.0997 8.76109 45.9274 7.27844 43.2383 7.27844Z" fill="white"/>
<path d="M80.0143 0.539141L87.7371 47.7143H80.0832L78.7731 39.1553H69.4643L68.1542 47.7143H61.1899L68.9127 0.539141H80.0143ZM74.0842 8.89588L70.4297 32.753H77.7388L74.0842 8.89588Z" fill="white"/>
<path d="M112.024 47.7143L104.646 28.9116L102.302 33.2248V47.7143H94.717V0.539141H102.302V21.094L112.231 0.539141H119.816L109.266 21.5658L119.816 47.7143H112.024Z" fill="white"/>
<path d="M133.209 11.3894V36.864C133.209 40.2336 134.726 41.5141 137.139 41.5141C139.552 41.5141 141.069 40.2336 141.069 36.864V11.3894C141.069 8.01977 139.552 6.7393 137.139 6.7393C134.726 6.7393 133.209 8.01977 133.209 11.3894ZM125.624 36.3922V11.8612C125.624 4.31315 129.692 0 137.139 0C144.586 0 148.654 4.31315 148.654 11.8612V36.3922C148.654 43.9402 144.586 48.2534 137.139 48.2534C129.692 48.2534 125.624 43.9402 125.624 36.3922Z" fill="white"/>
<path d="M156.548 0.539141H178.062V7.14366L163.651 40.975H178.062V47.7143H155.859V41.1097L170.27 7.27844H156.548V0.539141Z" fill="white"/>
<path d="M193.585 27.4964V47.7143H186V0.539141H193.585V20.757H202.204V0.539141H209.927V47.7143H202.204V27.4964H193.585Z" fill="white"/>
<path d="M218.874 47.7143V0.539141H226.459V47.7143H218.874Z" fill="white"/>
<path d="M252.277 0.539141L260 47.7143H252.346L251.036 39.1553H241.727L240.417 47.7143H233.453L241.176 0.539141H252.277ZM246.347 8.89588L242.693 32.753H250.002L246.347 8.89588Z" fill="white"/>
<path d="M73.0185 86.6977H66.3093L65.1991 89.8349H61.6515L67.709 73.3472H71.6428L77.7004 89.8349H74.1286L73.0185 86.6977ZM72.1014 84.0559L69.6639 77.1684L67.2264 84.0559H72.1014Z" fill="white"/>
<path d="M88.1701 73.3708V89.8349H84.7914V73.3708H88.1701Z" fill="white"/>
<path d="M105.023 89.8349L101.307 83.4191H99.7138V89.8349H96.3351V73.3708H102.658C103.961 73.3708 105.072 73.5988 105.989 74.0548C106.906 74.4951 107.589 75.1005 108.04 75.8711C108.507 76.6259 108.74 77.475 108.74 78.4185C108.74 79.5035 108.418 80.4864 107.775 81.367C107.131 82.2318 106.174 82.8294 104.903 83.1596L108.933 89.8349H105.023ZM99.7138 80.9424H102.537C103.455 80.9424 104.138 80.7301 104.589 80.3055C105.039 79.8652 105.265 79.2598 105.265 78.4893C105.265 77.7345 105.039 77.1526 104.589 76.7438C104.138 76.3192 103.455 76.1069 102.537 76.1069H99.7138V80.9424Z" fill="white"/>
<path d="M120.001 87.2167H125.552V89.8349H116.623V73.3708H120.001V87.2167Z" fill="white"/>
<path d="M135.905 73.3708V89.8349H132.526V73.3708H135.905Z" fill="white"/>
<path d="M158.478 89.8349H155.099L147.449 78.5364V89.8349H144.07V73.3472H147.449L155.099 84.6692V73.3472H158.478V89.8349Z" fill="white"/>
<path d="M170.022 76.0362V80.164H175.694V82.7822H170.022V87.1459H176.418V89.8349H166.644V73.3472H176.418V76.0362H170.022Z" fill="white"/>
<path d="M190.131 90C188.957 90 187.895 89.8034 186.946 89.4103C186.012 89.0172 185.272 88.4511 184.725 87.712C184.178 86.9729 183.897 86.1002 183.881 85.0938H187.501C187.549 85.77 187.79 86.3046 188.225 86.6977C188.675 87.0909 189.287 87.2874 190.059 87.2874C190.847 87.2874 191.467 87.1066 191.917 86.7449C192.368 86.3675 192.593 85.88 192.593 85.2825C192.593 84.795 192.44 84.394 192.134 84.0795C191.829 83.765 191.442 83.5213 190.976 83.3483C190.525 83.1596 189.898 82.9552 189.093 82.735C187.999 82.4205 187.106 82.1139 186.415 81.8151C185.739 81.5006 185.152 81.0367 184.653 80.4235C184.17 79.7945 183.929 78.961 183.929 77.9232C183.929 76.9482 184.178 76.0991 184.677 75.3757C185.176 74.6524 185.876 74.102 186.777 73.7246C187.678 73.3315 188.707 73.1349 189.866 73.1349C191.603 73.1349 193.011 73.5516 194.089 74.385C195.183 75.2027 195.787 76.3507 195.899 77.8288H192.183C192.15 77.2627 191.901 76.7988 191.434 76.4372C190.984 76.0598 190.381 75.8711 189.624 75.8711C188.965 75.8711 188.434 76.0362 188.032 76.3664C187.645 76.6966 187.452 77.1762 187.452 77.8052C187.452 78.2455 187.597 78.6151 187.887 78.9139C188.192 79.1969 188.563 79.4328 188.997 79.6215C189.447 79.7945 190.075 79.9989 190.879 80.2348C191.973 80.5493 192.866 80.8638 193.558 81.1783C194.25 81.4928 194.845 81.9645 195.344 82.5935C195.843 83.2225 196.092 84.0481 196.092 85.0702C196.092 85.9508 195.859 86.7685 195.392 87.5233C194.926 88.2781 194.242 88.8835 193.341 89.3396C192.44 89.7799 191.37 90 190.131 90Z" fill="white"/>
</svg>
