<svg width="25" height="22" viewBox="0 0 25 22" fill="none" xmlns="http://www.w3.org/2000/svg">
<path id="Vector" d="M20.25 7.25L24 11M24 11L20.25 14.75M24 11H6.5M15.25 16V19.75C15.25 20.0815 15.1183 20.3995 14.8839 20.6339C14.6495 20.8683 14.3315 21 14 21H2.75C2.41848 21 2.10054 20.8683 1.86612 20.6339C1.6317 20.3995 1.5 20.0815 1.5 19.75V2.25C1.5 1.91848 1.6317 1.60054 1.86612 1.36612C2.10054 1.1317 2.41848 1 2.75 1H14C14.3315 1 14.6495 1.1317 14.8839 1.36612C15.1183 1.60054 15.25 1.91848 15.25 2.25V6" stroke="white" stroke-width="1.5" stroke-linecap="round" stroke-linejoin="round"/>
</svg>
