<svg width="24" height="24" viewBox="0 0 24 24" fill="none" xmlns="http://www.w3.org/2000/svg">
<path id="Vector" d="M10.4 10.4C10.1878 10.4 9.98434 10.3157 9.83432 10.1657C9.68429 10.0157 9.6 9.81217 9.6 9.6C9.6 8.7176 8.8824 8 8 8C7.1176 8 6.4 8.7176 6.4 9.6C6.4 9.81217 6.31571 10.0157 6.16569 10.1657C6.01566 10.3157 5.81217 10.4 5.6 10.4C5.38783 10.4 5.18434 10.3157 5.03431 10.1657C4.88429 10.0157 4.8 9.81217 4.8 9.6C4.8 7.8352 6.2352 6.4 8 6.4C9.7648 6.4 11.2 7.8352 11.2 9.6C11.2 9.81217 11.1157 10.0157 10.9657 10.1657C10.8157 10.3157 10.6122 10.4 10.4 10.4ZM19.2 9.6C19.2 7.8352 17.7648 6.4 16 6.4C14.2352 6.4 12.8 7.8352 12.8 9.6C12.8 9.81217 12.8843 10.0157 13.0343 10.1657C13.1843 10.3157 13.3878 10.4 13.6 10.4C13.8122 10.4 14.0157 10.3157 14.1657 10.1657C14.3157 10.0157 14.4 9.81217 14.4 9.6C14.4 8.7176 15.1176 8 16 8C16.8824 8 17.6 8.7176 17.6 9.6C17.6 9.81217 17.6843 10.0157 17.8343 10.1657C17.9843 10.3157 18.1878 10.4 18.4 10.4C18.6122 10.4 18.8157 10.3157 18.9657 10.1657C19.1157 10.0157 19.2 9.81217 19.2 9.6ZM16 14.4C16 14.1878 15.9157 13.9843 15.7657 13.8343C15.6157 13.6843 15.4122 13.6 15.2 13.6C14.9878 13.6 14.7843 13.6843 14.6343 13.8343C14.4843 13.9843 14.4 14.1878 14.4 14.4C14.4 15.7232 13.3232 16.8 12 16.8C10.6768 16.8 9.6 15.7232 9.6 14.4C9.6 14.1878 9.51571 13.9843 9.36569 13.8343C9.21566 13.6843 9.01217 13.6 8.8 13.6C8.58783 13.6 8.38434 13.6843 8.23431 13.8343C8.08429 13.9843 8 14.1878 8 14.4C8 16.6056 9.7944 18.4 12 18.4C14.2056 18.4 16 16.6056 16 14.4ZM24 12C24 5.3832 18.6168 0 12 0C5.3832 0 0 5.3832 0 12C0 18.6168 5.3832 24 12 24C18.6168 24 24 18.6168 24 12ZM22.4 12C22.4 17.7344 17.7344 22.4 12 22.4C6.2656 22.4 1.6 17.7344 1.6 12C1.6 6.2656 6.2656 1.6 12 1.6C17.7344 1.6 22.4 6.2656 22.4 12Z" fill="#CACBCC"/>
</svg>
